# xmcd CD database file
#
# Track frame offsets:
#	150
#	74123
#	80550
#	84106
#	92944
#	99889
#	111022
#	164984
#	201643
#	214848
#	228841
#	256024
#	269110
#
# Disc length: 3763 seconds
#
# Revision: 0
# Processed by: cddbd v1.5PL3 Copyright (c) Steve Scherf et al.
# Submitted via: CDex 1.51
#
DISCID=bd0eb10d
DTITLE=Various Artist - Enjoy Gershwin
DYEAR=2003
DGENRE=Jazz
TTITLE0=Rhapsody in Blue (Columbia Symphony Orchestra, Leonard Bernstein)
TTITLE1=Prelude Nr. 1 (arr. für 2 Klaviere, Katia and Marielle Labèque, Klavier)
TTITLE2=4 Pieces for Piano, Nobody but you (André Watts, Klavier)
TTITLE3=4 Pieces for Piano, Do it again (André Watts, Klavier)
TTITLE4=4 Pieces for Piano, Lady be good (André Watts, Klavier)
TTITLE5=4 Pieces for Piano, Liza (André Watts, Klavier)
TTITLE6=Klavierkonzert in F, Andante con moto (André Previn, Orchester André Kostelanetz)
TTITLE7=Lullaby (Juilliard String Quartett)
TTITLE8=Promenade, Walking the dog (Los Angeles Philharmonic Orchestra, Michael Tilson Thomas)
TTITLE9=Lady be good, The Man I love (Billie Holiday)
TTITLE10=Porgy and Bess, Bess you is my woman now (Tommy Flanagan, Ron Carter, Roy Haynes)
TTITLE11=Porgy and Bess, It ain't necessarily so (Aretha Flanklin)
TTITLE12=Porgy and Bess, Summertime (Billie Holiday)
EXTD=YEAR: 2003
EXTT0=
EXTT1=
EXTT2=
EXTT3=
EXTT4=
EXTT5=
EXTT6=
EXTT7=
EXTT8=
EXTT9=
EXTT10=
EXTT11=
EXTT12=
PLAYORDER=
